<svg width="318" height="408" viewBox="0 0 318 408" fill="none" xmlns="http://www.w3.org/2000/svg">
<path d="M255.529 242.57C256.892 237.778 261.882 234.999 266.674 236.363C271.466 237.726 274.245 242.716 272.881 247.508C268.497 262.917 256.25 274.993 240.424 278.949L93.791 315.606C69.0039 321.334 44.6894 306.35 39.0594 281.953L1.16449 117.742C-4.36497 93.7808 10.3177 69.8063 34.1742 63.8422L68.2554 55.3219C73.0887 54.1136 77.9864 57.0522 79.1948 61.8855C80.4031 66.7188 77.4645 71.6165 72.6311 72.8249L38.55 81.3452C24.2361 84.9236 15.4265 99.3083 18.7441 113.685L56.6391 277.896C60.0168 292.533 74.6042 301.523 89.5722 298.066L236.049 261.446C245.55 259.071 252.894 251.83 255.529 242.57ZM299.674 185.701V45.1042C299.674 30.158 287.558 18.0417 272.612 18.0417H110.237C95.2906 18.0417 83.1743 30.158 83.1743 45.1042V149.618L121.9 110.892C125.423 107.369 131.134 107.369 134.657 110.892L201.595 177.83L249.566 145.848C253.144 143.463 257.908 143.935 260.949 146.975L299.674 185.701ZM299.449 210.99L253.421 164.962L205.449 196.943C201.871 199.329 197.107 198.857 194.066 195.816L128.278 130.028L83.1743 175.132V207.479C83.1743 222.425 95.2906 234.542 110.237 234.542H272.612C286.368 234.542 297.727 224.278 299.449 210.99ZM110.237 0H272.612C297.522 0 317.716 20.1938 317.716 45.1042V207.479C317.716 232.39 297.522 252.583 272.612 252.583H110.237C85.3265 252.583 65.1326 232.39 65.1326 207.479V45.1042C65.1326 20.1938 85.3265 0 110.237 0ZM227.508 36.0833H263.591C273.555 36.0833 281.633 44.1609 281.633 54.125V90.2083C281.633 100.172 273.555 108.25 263.591 108.25H227.508C217.544 108.25 209.466 100.172 209.466 90.2083V54.125C209.466 44.1609 217.544 36.0833 227.508 36.0833ZM227.508 54.125V90.2083H263.591V54.125H227.508Z" fill="#C8C8C8"/>
<path d="M72.8068 372.048V399H68.4639L55.7645 380.642H55.5407V399H50.6583V372.048H55.0275L67.7138 390.42H67.9507V372.048H72.8068ZM102.21 385.524C102.21 388.428 101.666 390.915 100.578 392.986C99.4987 395.048 98.0248 396.627 96.1561 397.723C94.2961 398.82 92.1861 399.368 89.8261 399.368C87.466 399.368 85.3516 398.82 83.4829 397.723C81.6229 396.618 80.149 395.034 79.0611 392.973C77.982 390.902 77.4424 388.419 77.4424 385.524C77.4424 382.62 77.982 380.137 79.0611 378.075C80.149 376.005 81.6229 374.421 83.4829 373.325C85.3516 372.228 87.466 371.68 89.8261 371.68C92.1861 371.68 94.2961 372.228 96.1561 373.325C98.0248 374.421 99.4987 376.005 100.578 378.075C101.666 380.137 102.21 382.62 102.21 385.524ZM97.301 385.524C97.301 383.48 96.9808 381.756 96.3403 380.352C95.7086 378.94 94.8313 377.874 93.7083 377.154C92.5853 376.426 91.2912 376.062 89.8261 376.062C88.3609 376.062 87.0668 376.426 85.9438 377.154C84.8208 377.874 83.9391 378.94 83.2987 380.352C82.667 381.756 82.3511 383.48 82.3511 385.524C82.3511 387.568 82.667 389.297 83.2987 390.709C83.9391 392.113 84.8208 393.179 85.9438 393.907C87.0668 394.626 88.3609 394.986 89.8261 394.986C91.2912 394.986 92.5853 394.626 93.7083 393.907C94.8313 393.179 95.7086 392.113 96.3403 390.709C96.9808 389.297 97.301 387.568 97.301 385.524ZM116.018 399V372.048H126.125C128.195 372.048 129.933 372.434 131.336 373.206C132.749 373.978 133.815 375.04 134.534 376.391C135.262 377.733 135.626 379.26 135.626 380.971C135.626 382.699 135.262 384.234 134.534 385.577C133.806 386.919 132.731 387.976 131.31 388.748C129.889 389.512 128.138 389.893 126.059 389.893H119.361V385.879H125.401C126.612 385.879 127.603 385.669 128.375 385.248C129.147 384.827 129.718 384.248 130.086 383.511C130.463 382.774 130.652 381.927 130.652 380.971C130.652 380.014 130.463 379.172 130.086 378.444C129.718 377.716 129.143 377.15 128.362 376.746C127.59 376.334 126.594 376.128 125.375 376.128H120.9V399H116.018ZM163.95 385.524C163.95 388.428 163.406 390.915 162.318 392.986C161.239 395.048 159.765 396.627 157.897 397.723C156.037 398.82 153.927 399.368 151.567 399.368C149.207 399.368 147.092 398.82 145.223 397.723C143.364 396.618 141.89 395.034 140.802 392.973C139.723 390.902 139.183 388.419 139.183 385.524C139.183 382.62 139.723 380.137 140.802 378.075C141.89 376.005 143.364 374.421 145.223 373.325C147.092 372.228 149.207 371.68 151.567 371.68C153.927 371.68 156.037 372.228 157.897 373.325C159.765 374.421 161.239 376.005 162.318 378.075C163.406 380.137 163.95 382.62 163.95 385.524ZM159.042 385.524C159.042 383.48 158.721 381.756 158.081 380.352C157.449 378.94 156.572 377.874 155.449 377.154C154.326 376.426 153.032 376.062 151.567 376.062C150.101 376.062 148.807 376.426 147.684 377.154C146.561 377.874 145.68 378.94 145.039 380.352C144.408 381.756 144.092 383.48 144.092 385.524C144.092 387.568 144.408 389.297 145.039 390.709C145.68 392.113 146.561 393.179 147.684 393.907C148.807 394.626 150.101 394.986 151.567 394.986C153.032 394.986 154.326 394.626 155.449 393.907C156.572 393.179 157.449 392.113 158.081 390.709C158.721 389.297 159.042 387.568 159.042 385.524ZM168.566 399V372.048H173.449V384.432H173.778L184.293 372.048H190.254L179.831 384.142L190.346 399H184.477L176.436 387.445L173.449 390.972V399H168.566ZM193.646 399V372.048H211.175V376.141H198.528V383.458H210.267V387.551H198.528V394.907H211.281V399H193.646ZM216.156 372.048H222.131L230.132 391.578H230.448L238.45 372.048H244.424V399H239.739V380.484H239.489L232.041 398.921H228.54L221.091 380.444H220.841V399H216.156V372.048ZM273.824 385.524C273.824 388.428 273.28 390.915 272.192 392.986C271.113 395.048 269.639 396.627 267.77 397.723C265.91 398.82 263.8 399.368 261.44 399.368C259.08 399.368 256.966 398.82 255.097 397.723C253.237 396.618 251.763 395.034 250.675 392.973C249.596 390.902 249.057 388.419 249.057 385.524C249.057 382.62 249.596 380.137 250.675 378.075C251.763 376.005 253.237 374.421 255.097 373.325C256.966 372.228 259.08 371.68 261.44 371.68C263.8 371.68 265.91 372.228 267.77 373.325C269.639 374.421 271.113 376.005 272.192 378.075C273.28 380.137 273.824 382.62 273.824 385.524ZM268.915 385.524C268.915 383.48 268.595 381.756 267.955 380.352C267.323 378.94 266.446 377.874 265.323 377.154C264.2 376.426 262.905 376.062 261.44 376.062C259.975 376.062 258.681 376.426 257.558 377.154C256.435 377.874 255.553 378.94 254.913 380.352C254.281 381.756 253.965 383.48 253.965 385.524C253.965 387.568 254.281 389.297 254.913 390.709C255.553 392.113 256.435 393.179 257.558 393.907C258.681 394.626 259.975 394.986 261.44 394.986C262.905 394.986 264.2 394.626 265.323 393.907C266.446 393.179 267.323 392.113 267.955 390.709C268.595 389.297 268.915 387.568 268.915 385.524ZM300.588 372.048V399H296.245L283.546 380.642H283.322V399H278.44V372.048H282.809L295.495 390.42H295.732V372.048H300.588Z" fill="#C8C8C8"/>
</svg>
